<svg width="150" height="40" viewBox="0 0 150 40" fill="none" xmlns="http://www.w3.org/2000/svg">
  <!-- Simple placeholder logo for GC V3 -->
  <path d="M13.6 28.8C10.7467 28.8 8.4 28 6.56 26.4C4.72 24.8 3.73333 22.5333 3.6 19.6H10.08C10.16 20.6667 10.52 21.5333 11.16 22.2C11.8 22.8667 12.6133 23.2 13.6 23.2C14.5867 23.2 15.4 22.8667 16.04 22.2C16.68 21.5333 17 20.6667 17 19.6C17 18.5333 16.68 17.6667 16.04 17C15.4 16.3333 14.5867 16 13.6 16C12.6133 16 11.8 16.3333 11.16 17C10.52 17.6667 10.16 18.5333 10.08 19.6H3.6C3.73333 16.6667 4.72 14.4 6.56 12.8C8.4 11.2 10.7467 10.4 13.6 10.4C16.4533 10.4 18.8 11.2 20.64 12.8C22.48 14.4 23.4667 16.6667 23.6 19.6C23.4667 22.5333 22.48 24.8 20.64 26.4C18.8 28 16.4533 28.8 13.6 28.8Z" fill="black"/>
  <path d="M57.4 11.2L46.8 28H43.6V10.8H50V19.6L55.24 10.8H60.6L54 21.6L60.6 28H55.24L50 21.6V28H43.6V11.2H57.4Z" fill="black"/>
  <path d="M92.24 10.8V16.4H84.56V28H78.16V16.4H70.48V10.8H92.24Z" fill="black"/>
  <path d="M108.56 10.8V16.4H100.88V17.2H108.56V22.4H100.88V23.2H108.56V28H94.48V10.8H108.56Z" fill="black"/>
  <!-- "V3" text -->
  <path d="M124 13.2L129.2 28H124.8L120.8 16.4L116.8 28H112.4L117.6 13.2H124Z" fill="black"/>
  <path d="M146.56 13.2V17.6H140.96V18.4H146.56V22.4H140.96V23.6H146.56V28H134.56V13.2H146.56Z" fill="black"/>
  <rect x="130" y="22.8" width="7" height="0.8" fill="black"/>
</svg>
